<svg xmlns="http://www.w3.org/2000/svg" xmlns:xlink="http://www.w3.org/1999/xlink" viewBox="0 0 346.63 409.96"><defs><path id="a" fill="#aedfe4" d="M210.99 228.58a8.18 8.18 0 0 1 8.17 8.17v45.83a8.18 8.18 0 0 1-8.17 8.17h-75.66a8.18 8.18 0 0 1-8.17-8.17v-45.83a8.18 8.18 0 0 1 8.17-8.17H211m0-4h-75.67a12.17 12.17 0 0 0-12.17 12.17v45.83a12.17 12.17 0 0 0 12.17 12.17H211a12.17 12.17 0 0 0 12.16-12.17v-45.83a12.17 12.17 0 0 0-12.17-12.17Z"/></defs><defs><clipPath id="b" transform="translate(-.84 -.67)"><rect width="52.5" height="18.17" x="147.92" y="163.83" fill="none" rx="9.08" ry="9.08"/></clipPath></defs><path fill="#aedfe4" d="m238.3 234.33 28 18 20.17-34 14.83 17-24 38.84-13.33 1-29-18.17 3.33-22.67zm-85.14-37.93h40v16.5h-40zm-18.75 107.27h77.5v16.5h-77.5zm38.75-293.52 10.19 42.62h-20.62l10.43-42.62zm-64.83 224.18-28 18-20.17-34-14.83 17 24 38.84 13.33 1 29-18.17-3.33-22.67z"/><path fill="#ef4236" d="M33.66 201.33s-8.67 5.33-14.67-14c-6.62-21.35-20.66-5.86-18.83 9.65s14.5 20 25.83 16.52 7.67-12.17 7.67-12.17Zm-2.17-34.67a8.47 8.47 0 0 1 8.33-5.67c6.67 0 22.83 7.5 22.83 21S50.16 199.5 50.16 199.5H39.33s7.33-3.67 2-14.17-9.67-14.5-9.83-17.83"/><path fill="#fdba63" d="M23.41 225.28c-2.83-10 1.8-21.24 11.73-26.76s22-3.52 29 4.21Z"/><rect width="132" height="98.67" x="107.16" y="210.33" fill="#08b0d8" rx="14.67" ry="14.67"/><rect width="96" height="66.17" x="125.16" y="226.58" fill="#fdbb65" rx="10.17" ry="10.17"/><use xlink:href="#a"/><rect width="202" height="151" x="72.16" y="50.33" fill="#08b0d8" rx="20.67" ry="20.67"/><rect width="169.37" height="118.71" x="88.48" y="66" fill="#aedfe4" rx="16.78" ry="16.78"/><path fill="#08b0d8" d="M66.38 196.98a27.34 27.34 0 0 1-48.13 25.94Z"/><path fill="#242020" d="m80.16 253.75 2.46 21.42s-1.92 2-7.29 2-6-3-6-3Z"/><circle cx="46.8" cy="218.96" r="4.06" fill="#aedfe4"/><circle cx="85.18" cy="187.44" r="4.06" fill="#aedfe4"/><circle cx="260.1" cy="187.44" r="4.06" fill="#aedfe4"/><circle cx="85.18" cy="64.44" r="4.06" fill="#aedfe4"/><circle cx="260.1" cy="64.44" r="4.06" fill="#aedfe4"/><circle cx="119.1" cy="223.02" r="4.06" fill="#aedfe4"/><circle cx="119.1" cy="298.15" r="4.06" fill="#aedfe4"/><circle cx="227.98" cy="223.02" r="4.06" fill="#aedfe4"/><circle cx="227.98" cy="298.15" r="4.06" fill="#aedfe4"/><path fill="#08b0d8" d="M104.66 223.5v31l-15.42-21.09a19.14 19.14 0 0 1 15.42-9.91Z"/><path fill="#ef4236" d="M312.96 201.33s8.67 5.33 14.67-14c6.62-21.35 20.67-5.86 18.83 9.65s-14.5 20-25.83 16.52-7.67-12.17-7.67-12.17Zm2.2-34.67a8.47 8.47 0 0 0-8.33-5.67c-6.67 0-22.83 7.5-22.83 21s12.5 17.5 12.5 17.5h10.83s-7.33-3.67-2-14.17 9.67-14.5 9.83-17.83"/><path fill="#fdba63" d="M323.16 225.28c2.83-10-1.8-21.24-11.73-26.76s-22-3.52-29 4.21Z"/><path fill="#08b0d8" d="M280.24 196.98a27.34 27.34 0 0 0 48.13 25.94Z"/><path fill="#242020" d="m266.42 253.75-2.46 21.42s1.92 2 7.29 2 6-3 6-3Z"/><circle cx="299.83" cy="218.96" r="4.06" fill="#aedfe4"/><path fill="#08b0d8" d="M241.96 223.5v31l15.42-21.08a19.14 19.14 0 0 0-15.42-9.92Z"/><rect width="118" height="9.5" x="114.16" y="361.96" fill="#fdbb65" rx="4.75" ry="4.75"/><rect width="83.5" height="9.5" x="131.41" y="381.21" fill="#fdbb65" rx="4.75" ry="4.75"/><rect width="42.5" height="9.5" x="151.91" y="400.46" fill="#fdbb65" rx="4.75" ry="4.75"/><path fill="#08b0d8" d="M135.41 353.75a56 56 0 0 1-18.33-38.42h112.16a56 56 0 0 1-18.33 38.43Z"/><circle cx="132.65" cy="123.97" r="15.51"/><path fill="#08b0d8" d="M132.65 108.45a15.51 15.51 0 1 1-15.49 15.52 15.51 15.51 0 0 1 15.51-15.51m0-23a38.51 38.51 0 1 0 38.49 38.51 38.55 38.55 0 0 0-38.51-38.51Z"/><path fill="#f1f1f2" d="M132.65 108.45a15.51 15.51 0 1 1-15.49 15.52 15.51 15.51 0 0 1 15.51-15.51m0-14a29.51 29.51 0 1 0 29.49 29.51 29.54 29.54 0 0 0-29.51-29.51Z"/><circle cx="214.65" cy="123.97" r="15.51"/><path fill="#08b0d8" d="M214.65 108.45a15.51 15.51 0 1 1-15.49 15.52 15.51 15.51 0 0 1 15.51-15.51m0-23a38.51 38.51 0 1 0 38.49 38.51 38.55 38.55 0 0 0-38.51-38.51Z"/><path fill="#f1f1f2" d="M214.65 108.45a15.51 15.51 0 1 1-15.49 15.52 15.51 15.51 0 0 1 15.51-15.51m0-14a29.51 29.51 0 1 0 29.49 29.51 29.54 29.54 0 0 0-29.51-29.51Z"/><rect width="52.5" height="18.17" x="147.08" y="163.17" fill="#fdbb65" rx="9.08" ry="9.08"/><g fill="#ef4236" clip-path="url(#b)"><path d="M153.23 162.15h3.12v20.56h-3.12zm9.06 0h3.13v20.56h-3.13zm9.06 0h3.12v20.56h-3.12zm9.06 0h3.13v20.56h-3.13zm9.07 0h3.12v20.56h-3.12z"/></g><circle cx="173.16" cy="14.67" r="14.67" fill="#ef4236"/><path fill="none" stroke="#ef4236" stroke-linecap="round" stroke-linejoin="round" stroke-width="4" d="M126.33 261.63H136l11.98-18.67 10.71 18.67 7.15-12.62 7.41 12.62h13.25l7.07 13.97 11.74-25.19 5.77 11.22h8.42"/><use xlink:href="#a"/></svg>